# xmcd
#
# Track frame offsets: 
#        150
#        30992
#        46067
#        62762
#        85752
#        102927
#        122535
#        139158
#        168875
#        193825
#        213969
#        244953
#        260358
#        288554
#        312978
#        330547
#
# Disc length: 4789 seconds
#
# Revision: 2
# Processed by: cddbd v1.5.2PL0 Copyright (c) Steve Scherf et al.
# Submitted via: ExactAudioCopy v1.3
#
DISCID=de12b310
DTITLE=Various Artist - Akella Presents - Blues-Rock - vol.22  CD1  N
DTITLE=ew!
DYEAR=2013
DGENRE=Rock
TTITLE0=JOE BONAMASSA - Reconsider
TTITLE1=MICHAEL POWERS - Shock
TTITLE2=SOUL DOCTOR - Eatin' On Me
TTITLE3=LESLIE WEST - Love You Forever
TTITLE4=BONAFIDE - Rebel Machine
TTITLE5=WILD T and The SPIRIT - Talk Dirty
TTITLE6=BOOGIE STUFF - Just Got Paid
TTITLE7=MATT O'REE - Worth the Live
TTITLE8=ROB ORLEMANS - Blues For Money
TTITLE9=DAMAGE CONTROL - Dead Man Walking
TTITLE10=GOV'T MULE - Brand New Angel
TTITLE11=PEER GUNT - Middle Age Teenage
TTITLE12=MICHAEL KATON - 'Till The Hounds Of Hell Come Home
TTITLE13=ROSE TATTOO - Creeper
TTITLE14=SOUL RIVER DOGS - The Junk (All Funked Up)
TTITLE15=LARRY MILLER - The Devil's In The Detail
EXTD=
EXTT0=
EXTT1=
EXTT2=
EXTT3=
EXTT4=
EXTT5=
EXTT6=
EXTT7=
EXTT8=
EXTT9=
EXTT10=
EXTT11=
EXTT12=
EXTT13=
EXTT14=
EXTT15=
PLAYORDER=
